<?xml version="1.0" encoding="UTF-8" standalone="no"?>
<svg
   xmlns:dc="http://purl.org/dc/elements/1.1/"
   xmlns:cc="http://creativecommons.org/ns#"
   xmlns:rdf="http://www.w3.org/1999/02/22-rdf-syntax-ns#"
   xmlns:svg="http://www.w3.org/2000/svg"
   xmlns="http://www.w3.org/2000/svg"
   viewBox="0 0 160 157.33333"
   height="157.33333"
   width="160"
   xml:space="preserve"
   id="svg2"
   version="1.1"><metadata
     id="metadata8"><rdf:RDF><cc:Work
         rdf:about=""><dc:format>image/svg+xml</dc:format><dc:type
           rdf:resource="http://purl.org/dc/dcmitype/StillImage" /></cc:Work></rdf:RDF></metadata><defs
     id="defs6"><clipPath
       id="clipPath18"
       clipPathUnits="userSpaceOnUse"><path
         id="path16"
         d="M 0,118 H 120 V 0 H 0 Z" /></clipPath></defs><g
     transform="matrix(1.3333333,0,0,-1.3333333,0,157.33333)"
     id="g10"><g
       id="g12"><g
         clip-path="url(#clipPath18)"
         id="g14"><g
           transform="translate(116.3291,67.1968)"
           id="g20"><path
             id="path22"
             style="fill:#ffffff;fill-opacity:1;fill-rule:evenodd;stroke:none"
             d="m 0,0 c 4.802,-30.829 -16.298,-59.714 -47.127,-64.516 -30.83,-4.801 -59.714,16.298 -64.516,47.127 -4.801,30.829 16.298,59.714 47.127,64.516 24.949,3.886 49.448,-9.256 60.009,-32.19 h -51.572 c -12.816,0.098 -23.284,-10.212 -23.382,-23.028 -0.099,-12.815 10.211,-23.284 23.027,-23.382 9.37,-0.071 17.864,5.499 21.532,14.122 h -20.972 c -4.77,0 -8.637,3.867 -8.637,8.637 0,4.77 3.867,8.637 8.637,8.637 h 0.069 z" /></g></g></g></g></svg>